<?xml version="1.0" encoding="utf-8"?>
<!-- Generator: Adobe Illustrator 21.1.0, SVG Export Plug-In . SVG Version: 6.00 Build 0)  -->
<svg version="1.1" id="Layer_1" xmlns="http://www.w3.org/2000/svg" xmlns:xlink="http://www.w3.org/1999/xlink" x="0px" y="0px"
	 viewBox="0 0 140 40" style="enable-background:new 0 0 140 40;" xml:space="preserve">
<style type="text/css">
	.st0{fill:#FFE70D;}
</style>
<g>
	<g>
		<path class="st0" d="M127.8,7.2c0-2.8,2.3-5.1,5.1-5.1c2.7,0,5.1,2.1,5.1,5.1c0,2.9-2.4,5.1-5.1,5.1
			C130.1,12.3,127.8,10,127.8,7.2z"/>
	</g>
	<g>
		<path d="M4.7,24.3c0.1,0,0.2,0,0.3,0c2.3,0,4.6,0,6.9,0c0.7,0,1.3,0.1,2,0.3c1.5,0.5,2.5,1.6,3.1,3c0.5,1.3,0.5,2.6,0,3.9
			c-0.6,1.7-1.9,2.7-3.6,3.2c-0.5,0.1-0.9,0.2-1.4,0.2c-0.5,0-1,0-1.5,0c-0.1,0-0.1,0-0.2,0c0-0.1,0-0.1,0-0.2c0-0.6,0-2.1,0-2.4
			c0.1,0,0.1,0,0.2,0c0.4,0,0.9,0,1.3,0c0.3,0,0.6,0,0.8-0.1c1-0.2,1.6-0.9,1.9-1.9c0.1-0.6,0.1-1.1-0.1-1.6c-0.4-1-1.1-1.5-2.2-1.6
			c-0.1,0-0.3,0-0.4,0c-1.3,0-2.6,0-3.8,0c-0.1,0-0.2,0-0.3,0c0,0.1,0,0.1,0,0.2c0,0.1,0,0.2,0,0.3c0,3.8,0,7.6,0,11.4
			c0,0.1,0,0.3,0,0.4c-0.1,0-0.1,0-0.2,0c-0.8,0-1.7,0-2.5,0c0,0-0.1,0-0.1,0c0-0.1,0-0.1,0-0.2C4.7,34.2,4.7,29.3,4.7,24.3z"/>
		<path d="M129.1,24.3c1.2,1.8,2.5,3.7,3.7,5.6c0.3-0.3,0.4-0.6,0.6-0.9c0.2-0.3,0.4-0.6,0.6-0.9c0.2-0.3,0.4-0.6,0.6-0.9
			c0.2-0.3,0.4-0.6,0.6-0.9c0.2-0.3,0.4-0.6,0.6-0.9c0.2-0.3,0.4-0.6,0.6-0.9c0.3,0,2.8,0,3.1,0c0,0,0,0.1,0,0.1
			c0,0.1-0.1,0.2-0.2,0.2c-1.6,2.2-3.1,4.5-4.7,6.7c-0.1,0.1-0.1,0.2-0.2,0.3c0,0.1,0.1,0.2,0.2,0.3c1.6,2.3,3.2,4.6,4.8,7
			c0.1,0.1,0.2,0.2,0.2,0.3c0,0,0,0.1-0.1,0.1c-1,0-2,0-3.1,0c-0.1-0.1-0.1-0.2-0.2-0.3c-1.1-1.7-2.3-3.3-3.4-5
			c-0.1-0.1-0.1-0.2-0.2-0.3c-0.1,0.1-0.2,0.2-0.2,0.3c-1.1,1.7-2.3,3.4-3.4,5c-0.1,0.1-0.1,0.2-0.2,0.3c-1,0-2,0-3,0
			c0,0-0.1,0-0.1,0c0,0,0-0.1,0-0.1c0-0.1,0.1-0.2,0.2-0.2c1.6-2.3,3.2-4.6,4.8-6.9c0.1-0.1,0.1-0.2,0.2-0.3
			c-0.1-0.1-0.1-0.2-0.2-0.3c-1.5-2.2-3.1-4.5-4.6-6.7c-0.1-0.1-0.1-0.2-0.2-0.2c0,0,0-0.1,0-0.1C126.2,24.3,128.4,24.3,129.1,24.3z
			"/>
		<path d="M115.6,39.3c0,0-0.1,0-0.2,0c-1.1,0-10.7,0-11,0c0-0.1,0-0.1,0-0.2c0-0.1,0-0.1,0-0.2c0-4.7,0-9.4,0-14.2
			c0-0.1,0-0.2,0-0.4c0.1,0,0.1,0,0.2,0c0.1,0,0.1,0,0.2,0c3.4,0,6.9,0,10.3,0c0.1,0,0.3,0,0.4,0c0,0.1,0,0.1,0,0.2
			c0,0.8,0,1.6,0,2.4c0,0,0,0.1,0,0.1c-0.1,0-0.2,0-0.3,0c-0.8,0-1.7,0-2.5,0c-1.7,0-3.4,0-5.2,0c-0.1,0-0.2,0-0.3,0
			c-0.1,0.1,0,0.2,0,0.3c0,1.2,0,2.3,0,3.5c0,1.7,0,3.5,0,5.2c0,0.1,0,0.2,0,0.4c0.1,0,0.1,0,0.2,0c0.1,0,0.2,0,0.3,0
			c2.5,0,5,0,7.5,0c0.1,0,0.3,0,0.4,0c0,0,0,0.1,0,0.2C115.7,37.5,115.6,38.4,115.6,39.3C115.6,39.2,115.6,39.2,115.6,39.3z"/>
		<path d="M115.1,6.1c-1.6,0.4-3.2,0.7-4.8,1.2c0,0,0,0,0,0c0.3,0.1,0.6,0.2,0.9,0.4c0.3,0.1,0.6,0.3,0.9,0.4
			c0.3,0.1,0.6,0.2,0.9,0.4c0.3,0.1,0.6,0.2,0.9,0.4c0.3,0.1,0.6,0.2,0.9,0.4c-0.6,1.7-2.7,3.6-5.6,3.1c-2.6-0.5-4.3-2.8-4.2-5.3
			c0.2-2.5,2.2-4.7,4.9-4.8C112.9,2.1,114.8,4.3,115.1,6.1z"/>
		<path d="M66,39.3c0,0-0.1,0-0.1,0c-0.9,0-1.7,0-2.6,0c0-0.1,0-0.1,0-0.2c0-0.2,0-0.3,0-0.5c0-1.7,0-3.3,0-5c0-0.1,0-0.2,0-0.4
			c-0.4,0-0.8,0-1.2,0c-0.4,0-0.8,0-1.2,0c-0.4,0-0.8,0-1.2,0c-0.4,0-0.8,0-1.1,0c0,0,0,0,0,0c0,0,0,0,0,0c0-0.8,0-1.5,0-2.3
			c0-0.1,0-0.1,0-0.2c0,0,0,0,0,0c0.1,0,0.2,0,0.3,0c1.3,0,2.7,0,4,0c0.1,0,0.2,0,0.3,0c0.1-0.1,0-0.2,0-0.4c0-1.3,0-2.7,0-4
			c0-0.5,0-1.1,0-1.6c0-0.1,0-0.2,0-0.3c0,0,0,0,0,0c0,0,0,0,0,0c0.1,0,0.1,0,0.2,0c0.8,0,1.6,0,2.4,0c0,0,0,0,0.1,0c0,0,0,0,0,0
			c0,0,0,0,0,0c0,4.9,0,9.8,0,14.7C66,39.1,66,39.2,66,39.3C66,39.2,66,39.3,66,39.3z"/>
		<path d="M39.5,30.6c0-0.1-0.1-0.2-0.1-0.3c-0.1-0.6-0.4-1.1-0.7-1.7c-0.6-1-1.5-1.6-2.6-1.9c-1-0.2-2-0.2-3,0.1
			c-1,0.3-1.8,0.9-2.4,1.8c-0.3,0.5-0.6,1-0.7,1.6c0,0.1-0.1,0.3-0.1,0.4c0,0-0.1,0-0.1,0c-0.9,0-1.7,0-2.6,0c0,0-0.1,0-0.1,0
			c0-0.1,0-0.2,0-0.3c0.2-1.3,0.7-2.5,1.6-3.6c1-1.2,2.2-2,3.7-2.4c1.6-0.4,3.1-0.4,4.7,0c2.1,0.6,3.6,1.9,4.6,3.9
			c0.3,0.6,0.5,1.3,0.6,2c0,0.1,0,0.2,0,0.3c0,0,0,0,0,0.1c-0.1,0-0.1,0-0.2,0C41,30.7,39.8,30.6,39.5,30.6z"/>
		<path d="M39.5,33.3c0.4,0,2.5,0,2.8,0c0,0.1,0,0.2,0,0.3c-0.3,1.4-0.8,2.6-1.7,3.6c-1,1.1-2.2,1.8-3.6,2.2c-1,0.2-2,0.3-3,0.2
			c-0.8-0.1-1.5-0.2-2.2-0.5c-2-0.7-3.3-2.1-4.1-4c-0.2-0.5-0.3-1-0.4-1.5c0-0.1,0-0.2,0-0.3c0.1,0,0.1,0,0.2,0c1,0,2.3,0,2.6,0
			c0,0.1,0,0.1,0.1,0.2c0.1,0.4,0.3,0.8,0.5,1.2c0.7,1.2,1.7,2,3.1,2.3c0.8,0.2,1.7,0.2,2.5,0c1.4-0.3,2.5-1.2,3.1-2.5
			c0.1-0.2,0.2-0.5,0.3-0.8C39.4,33.5,39.5,33.4,39.5,33.3z"/>
		<path d="M53.1,24.4c0.3,0,2.5-0.1,2.8,0c0,0.1,0,0.1,0,0.2c0,0.1,0,0.1,0,0.2c0,4.7,0,9.4,0,14.2c0,0.1,0,0.2,0,0.3c0,0,0,0,0,0
			c0,0,0,0,0,0c-0.8,0-1.7,0-2.5,0c-0.1,0-0.1,0-0.2,0c0,0,0,0-0.1,0c0,0,0-0.1,0-0.1C53.1,34.2,53.1,29.3,53.1,24.4z"/>
		<path d="M94.2,26.9c-1.6,0-3.1,0-4.7,0c-0.1,0.1-0.1,0.2-0.1,0.4c0,1,0,2,0,3c0,0.1,0,0.2,0,0.4c-0.1,0-0.2,0-0.3,0
			c-0.8,0-1.6,0-2.5,0c-0.1-0.1,0-0.2,0-0.4c0-1,0-2,0-3c0-0.1,0-0.2,0-0.3c-0.1-0.1-0.2-0.1-0.3-0.1c-0.8,0-1.6,0-2.4,0
			c-0.6,0-1.1,0-1.7,0c-0.1,0-0.2,0-0.3,0c0,0,0-0.1,0-0.1c0-0.8,0-1.6,0-2.3c0,0,0-0.1,0-0.1c0.1,0,0.1,0,0.2,0c2.5,0,11.7,0,12,0
			c0,0,0,0.1,0,0.1c0,0.8,0,1.5,0,2.3C94.2,26.7,94.2,26.8,94.2,26.9z"/>
		<path d="M92.7,9.1c-0.9,2.3-3.4,3.5-5.5,3c0,0,0-0.1,0-0.1c0.2-1.3,0.4-2.6,0.7-4c0-0.2,0.1-0.4,0.1-0.5c0-0.1,0-0.2,0.1-0.3
			C88.3,7.3,92.5,8.9,92.7,9.1z"/>
		<path d="M34.5,13.8c0.1-0.3,1.7-4.5,1.8-4.7c0,0,0.1,0,0.1,0.1c1.4,0.9,2.7,1.8,4.1,2.7c-0.3,0.7-1.3,1.5-2.3,1.9
			C37,14.2,35.8,14.2,34.5,13.8z"/>
		<path d="M60.7,8.2c1.4,0.9,2.8,1.9,4.2,2.8c-0.3,0.7-1.4,1.6-2.4,1.9c-1.2,0.4-2.4,0.4-3.6,0c0-0.1,0-0.1,0-0.2
			c0.6-1.4,1.1-2.9,1.7-4.3C60.6,8.3,60.6,8.3,60.7,8.2z"/>
		<path d="M11.9,9.4c1.4,0.9,2.8,1.9,4.2,2.8c0,0.1-0.1,0.1-0.1,0.2c-0.9,1.2-2.1,1.9-3.6,2c-0.7,0.1-1.4,0-2-0.2
			c-0.1,0-0.2-0.1-0.2-0.1c0,0,0,0,0,0C10.2,13.8,11.8,9.6,11.9,9.4z"/>
		<path d="M86.7,33.3c0.3,0,2.5,0,2.8,0c0,0.1,0,0.1,0,0.2c0,0.1,0,0.3,0,0.4c0,1.7,0,3.3,0,5c0,0.1,0,0.3,0,0.4c-0.1,0-0.1,0-0.2,0
			c-0.8,0-1.7,0-2.5,0c0,0-0.1,0-0.1,0c0-0.1,0-0.1,0-0.2C86.6,37.6,86.6,33.6,86.7,33.3z"/>
		<path d="M88,6.9c0-0.1,0-0.2,0-0.3c0-0.8,0-1.5,0-2.3c0-0.1,0-0.2,0.1-0.3c0.5-0.6,1-1.2,1.5-1.8c0,0,0,0,0.1-0.1
			c0.5,0.1,1.4,0.6,2,1.2C92.3,4,92.8,5,92.9,5.7c-0.1,0-0.1,0-0.2,0.1c-1.2,0.3-2.5,0.6-3.7,0.9c-0.3,0.1-0.6,0.1-0.9,0.2
			C88.2,6.9,88.1,6.9,88,6.9z"/>
		<path d="M17.3,4.5c-1.6,0.4-3.2,0.8-4.8,1.1c0,0-0.1,0-0.1,0c0-0.1,0-0.2,0-0.3c0-0.7,0-1.5,0-2.2c0-0.2,0-0.3,0.1-0.4
			c0.5-0.6,0.9-1.1,1.4-1.7C13.9,1,14,1,14,0.9c0.5,0.1,1.4,0.6,2,1.2C16.6,2.8,17.1,3.6,17.3,4.5z"/>
		<path d="M60.6,6.8c0-0.1,0-0.1,0-0.2c0-0.8,0-1.6,0-2.4c0-0.1,0-0.2,0.1-0.3c0.5-0.6,1-1.2,1.5-1.8c0,0,0,0,0.1-0.1
			c0.5,0.1,1.4,0.6,1.9,1.1c0.7,0.7,1.1,1.5,1.4,2.4c-0.1,0-0.1,0.1-0.2,0.1C63.3,6.2,60.9,6.8,60.6,6.8z"/>
		<path d="M41.1,5.4c-0.1,0-0.1,0.1-0.2,0.1c-1.6,0.4-3.1,0.7-4.7,1.1c0-0.1,0-0.1,0-0.2c0-0.8,0-1.6,0-2.4c0-0.1,0-0.2,0.1-0.3
			c0.5-0.6,1-1.2,1.5-1.8c0,0,0,0,0.1-0.1C39.1,2.2,40.7,3.6,41.1,5.4z"/>
		<path d="M7.7,13.8c-0.4,0-1.1-0.2-1.6-0.5c-0.8-0.5-1.4-1.1-1.9-1.9c-0.3-0.6-0.6-1.2-0.6-2c0.1,0,0.2,0,0.2,0
			C4.4,9.6,5,9.7,5.6,9.9c0.2,0.1,0.4,0,0.5,0c0.7-0.3,1.3-0.6,2-0.8c0.1,0,0.2-0.1,0.4-0.1c0,0.1,0,0.2,0,0.2
			c-0.2,1.5-0.5,3-0.7,4.5C7.7,13.7,7.7,13.7,7.7,13.8z"/>
		<path d="M86.8,12.1c-2.3-0.3-4-2.4-4.1-4.4c0.1-0.1,0.2,0,0.2,0c0.6,0.2,1.2,0.3,1.9,0.5c0.2,0,0.3,0,0.4,0
			c0.7-0.3,1.4-0.6,2.1-0.9c0.1,0,0.2-0.1,0.3-0.1c0.1,0.1,0,0.2,0,0.3c-0.1,0.5-0.2,1-0.3,1.5c-0.2,1-0.3,2-0.5,2.9
			C86.8,12,86.8,12,86.8,12.1z"/>
		<path d="M53.9,8.5c0.1,0,0.2,0,0.3,0.1c0.6,0.2,1.2,0.3,1.8,0.5c0.2,0,0.3,0,0.5,0c0.7-0.3,1.4-0.6,2.1-0.9c0.1,0,0.2-0.1,0.3-0.1
			c0,0,0,0.1,0,0.1c-0.3,1.6-0.5,3.2-0.8,4.7c0,0,0,0.1-0.1,0.1c-1.2-0.2-2.1-0.8-2.9-1.7C54.4,10.5,53.9,9.3,53.9,8.5z"/>
		<path d="M28.5,9.1c0.1,0,0.3,0.1,0.4,0.1c0.6,0.1,1.1,0.3,1.7,0.4c0.2,0,0.3,0,0.5,0c0.7-0.3,1.4-0.6,2.1-0.9
			c0.1,0,0.2-0.1,0.3-0.1c0,0,0,0.1,0,0.1c-0.3,1.6-0.5,3.2-0.8,4.8c-0.1,0.1-0.2,0-0.3,0c-0.4-0.1-0.8-0.2-1.1-0.4
			c-1.5-0.8-2.4-2-2.7-3.6c0-0.1,0-0.1,0-0.2C28.5,9.2,28.5,9.1,28.5,9.1z"/>
		<path d="M109.9,30.5c0.3,0,4.3-0.1,5.3,0c0.1,0,0.1,0,0.1,0c0,0,0,0.1,0,0.1c0,0.8,0,1.6,0,2.4c0,0,0,0.1,0,0.1c0,0-0.1,0-0.1,0
			c-0.9,0-5,0-5.3,0c0,0,0-0.1,0-0.1c0-0.8,0-1.5,0-2.3C109.9,30.6,109.9,30.6,109.9,30.5z"/>
		<path d="M55.7,3.5c0.2,0.2,3.3,3.3,3.5,3.6c-0.1,0-0.1,0.1-0.2,0.1c-0.8,0.3-1.5,0.6-2.3,1c-0.1,0.1-0.3,0.1-0.4,0
			c-0.6-0.2-1.3-0.3-2-0.5c-0.1,0-0.1,0-0.2-0.1C54,6.1,54.7,4.4,55.7,3.5z"/>
		<path d="M82.1,7.2c-0.2-1.3,0.4-3.1,1.5-4c0,0,0.1,0,0.1,0.1c1.1,1.1,2.2,2.3,3.4,3.4c0,0,0,0,0,0.1c0,0-0.1,0.1-0.1,0.1
			c-0.8,0.3-1.5,0.6-2.3,1c-0.1,0.1-0.2,0.1-0.4,0c-0.7-0.2-1.3-0.3-2-0.5C82.2,7.3,82.1,7.2,82.1,7.2z"/>
		<path d="M1.5,2.2C1.7,2.4,4.8,5.6,5,5.8c0,0.1-0.1,0.1-0.1,0.1c-0.8,0.3-1.6,0.7-2.3,1c-0.1,0-0.2,0.1-0.3,0
			C1.5,6.7,0.8,6.5,0.2,6.3c0,0-0.1,0-0.1-0.1C-0.2,4.8,0.5,3,1.5,2.2z"/>
		<path d="M72.1,33.2c0-0.9,0-1.7,0-2.6c0.1,0,0.1,0,0.2,0c0.2,0,0.4,0,0.6,0c1.3,0,2.7,0,4,0c0.1,0,0.3,0,0.4,0c0,0,0,0.1,0,0.1
			c0,0.8,0,1.6,0,2.3c0,0,0,0.1,0,0.1c0,0,0,0,0,0c0,0,0,0,0,0c-1.7,0-3.3,0-5,0C72.2,33.2,72.2,33.2,72.1,33.2z"/>
		<path d="M29.8,3.1c0.3,0.2,3.3,3.3,3.5,3.5c0,0.1-0.1,0.1-0.1,0.1c-0.8,0.3-1.5,0.6-2.3,1c-0.1,0-0.2,0.1-0.3,0
			c-0.7-0.2-1.4-0.4-2-0.5c-0.2,0-0.2-0.1-0.2-0.2C28.3,5.5,28.7,4.2,29.8,3.1C29.8,3.1,29.8,3.1,29.8,3.1z"/>
		<path d="M31.4,2.6c0.4-0.5,1.3-1.1,2.2-1.3c1-0.3,2-0.3,2.9,0.1c0,0.1-0.1,0.1-0.1,0.2c-0.4,0.5-0.9,1.1-1.3,1.6
			c-0.1,0.1-0.2,0.3-0.2,0.5c0,0.7,0,1.4,0,2.1c0,0.1,0,0.2,0,0.3c0,0-0.1,0-0.1,0C34.5,5.8,31.5,2.8,31.4,2.6z"/>
		<path d="M9.7,5.1C9.7,5.1,9.6,5.1,9.7,5.1C8.5,4,7.3,2.8,6.2,1.7c0.3-0.5,1.2-1,2-1.3c1-0.3,2.1-0.3,3.1,0c0,0.1-0.1,0.1-0.1,0.2
			c-0.4,0.5-0.8,1-1.3,1.6C9.7,2.5,9.7,2.4,9.7,2.8c0,0.7,0,1.3,0,2C9.7,4.9,9.8,5,9.7,5.1z"/>
		<path d="M59.8,6.7c-0.1-0.1-0.1-0.1-0.1-0.1c-1.1-1.1-2.3-2.3-3.4-3.4c0.3-0.5,1.3-1.1,2.2-1.3c0.9-0.3,2.3-0.2,2.9,0.1
			c0,0.1-0.1,0.1-0.1,0.2c-0.4,0.5-0.9,1.1-1.3,1.6c-0.1,0.2-0.2,0.3-0.2,0.6c0,0.7,0,1.3,0,2C59.8,6.4,59.8,6.5,59.8,6.7z"/>
		<path d="M84.2,3.2c0.5-0.6,1.6-1.2,2.5-1.4c0.8-0.2,2.1-0.1,2.6,0.2c-0.1,0.1-0.1,0.2-0.2,0.2c-0.4,0.5-0.8,1-1.2,1.5
			c-0.1,0.2-0.2,0.4-0.2,0.6c0,0.7,0,1.3,0,2c0,0.1,0,0.2,0,0.3c-0.1,0-0.2-0.1-0.2-0.1c-0.6-0.6-1.3-1.3-1.9-1.9
			c-0.4-0.4-0.8-0.8-1.2-1.2C84.4,3.4,84.3,3.3,84.2,3.2z"/>
		<path d="M113.5,7.5c0.1,0,0.1-0.1,0.1-0.1c1.6-0.4,3.1-0.7,4.7-1.1c0.3,0.7,0.2,2.3-0.2,3c0,0-0.1,0-0.1,0
			c-1.4-0.6-2.9-1.2-4.3-1.8C113.6,7.5,113.6,7.5,113.5,7.5z"/>
		<path d="M63.3,7.5c0.1,0,0.1-0.1,0.1-0.1C65,7,66.6,6.6,68.1,6.3c0.3,0.7,0.2,2.3-0.2,3c0,0-0.1,0-0.1,0c-1.4-0.6-2.9-1.2-4.3-1.8
			C63.4,7.5,63.4,7.5,63.3,7.5z"/>
		<path d="M95.9,6.3c0.2,1.1,0.2,2.1-0.2,3c0,0-0.1,0-0.1,0c0,0,0,0,0,0c-1.5-0.6-2.9-1.2-4.4-1.8c0,0-0.1,0-0.2-0.1
			c0.1,0,0.1-0.1,0.2-0.1c1.5-0.4,3-0.7,4.5-1.1C95.8,6.3,95.8,6.3,95.9,6.3z"/>
		<path d="M15.3,7.5c0.1,0,0.1-0.1,0.1-0.1C17,7,18.5,6.7,20.1,6.3c0,0,0.1,0,0.1,0c0.1,0.4,0.1,0.9,0.1,1.4c0,0.6-0.1,1.1-0.4,1.6
			c0,0,0,0-0.1,0c0,0,0,0,0,0c-1.5-0.6-2.9-1.2-4.4-1.8C15.5,7.5,15.4,7.5,15.3,7.5z"/>
		<path d="M39.9,7.4c1.6-0.4,3.2-0.8,4.8-1.1c0,0,0.1,0,0.1,0c0.3,0.6,0.2,2.2-0.2,3C44.4,9.3,40.3,7.6,39.9,7.4z"/>
	</g>
</g>
</svg>
