<svg xmlns="http://www.w3.org/2000/svg" width="12.876" height="27" viewBox="0 0 12.876 27">
  <metadata><?xpacket begin="﻿" id="W5M0MpCehiHzreSzNTczkc9d"?>
<x:xmpmeta xmlns:x="adobe:ns:meta/" x:xmptk="Adobe XMP Core 5.6-c138 79.159824, 2016/09/14-01:09:01        ">
   <rdf:RDF xmlns:rdf="http://www.w3.org/1999/02/22-rdf-syntax-ns#">
      <rdf:Description rdf:about=""/>
   </rdf:RDF>
</x:xmpmeta>
                                                                                                    
                                                                                                    
                                                                                                    
                                                                                                    
                                                                                                    
                                                                                                    
                                                                                                    
                                                                                                    
                                                                                                    
                                                                                                    
                                                                                                    
                                                                                                    
                                                                                                    
                                                                                                    
                                                                                                    
                                                                                                    
                                                                                                    
                                                                                                    
                                                                                                    
                                                                                                    
                           
<?xpacket end="w"?></metadata>
<defs>
    <style>
      .cls-1 {
        fill: #484848;
        fill-rule: evenodd;
      }
    </style>
  </defs>
  <path id="mouse" class="cls-1" d="M957.357,1168.86h5.285a3.788,3.788,0,0,1,2.674,1.1,3.684,3.684,0,0,1,1.113,2.64v11.14a3.7,3.7,0,0,1-1.113,2.64,3.788,3.788,0,0,1-2.674,1.1h-5.285a3.79,3.79,0,0,1-2.674-1.1,3.709,3.709,0,0,1-1.112-2.64V1172.6a3.691,3.691,0,0,1,1.112-2.64A3.79,3.79,0,0,1,957.357,1168.86Zm5.285,0.83h-5.285a2.983,2.983,0,0,0-2.079.85,2.9,2.9,0,0,0-.865,2.06v11.14a2.858,2.858,0,0,0,.865,2.05,2.949,2.949,0,0,0,2.079.86h5.285a2.95,2.95,0,0,0,2.08-.86,2.858,2.858,0,0,0,.865-2.05V1172.6a2.9,2.9,0,0,0-.865-2.06A2.984,2.984,0,0,0,962.642,1169.69Zm-2.221,2.95v3.58h-0.842v-3.58h0.842Zm-0.839,10.56h0.836v11.01h-0.836V1183.2Zm0.383,12.65-2.084-3.03,0.619-.53,1.152,1.71,0.625-.02,1.155-1.65,0.688,0.48Z" transform="translate(-953.562 -1168.84)"/>
</svg>
