<?xml version="1.0" encoding="utf-8"?>
<!-- Generator: Adobe Illustrator 21.1.0, SVG Export Plug-In . SVG Version: 6.00 Build 0)  -->
<svg version="1.1" id="Layer_1" xmlns="http://www.w3.org/2000/svg" xmlns:xlink="http://www.w3.org/1999/xlink" x="0px" y="0px"
	 viewBox="0 0 26 20" style="enable-background:new 0 0 26 20;" xml:space="preserve">
<style type="text/css">
	.st0{fill:#12D1E5;}
</style>
<g>
	<g>
		<path class="st0" d="M12.5,12.3c-0.2,0.4-2.7,6.7-2.8,7.2c1.9,0.7,3.8,0.7,5.7,0c1.5-0.6,3.2-1.9,3.6-2.9
			c-2.1-1.4-4.2-2.8-6.3-4.2C12.6,12.3,12.6,12.3,12.5,12.3z M12.3,4.5c0,1.2,0,2.5,0,3.7c0,0.1,0,0.2,0.1,0.3
			c2.5-0.6,4.9-1.1,7.3-1.7c0.1,0,0.2-0.1,0.3-0.1c-0.6-2.9-3.1-5-5.1-5.5c0,0-0.1,0.1-0.1,0.1C14,2.2,13.2,3.1,12.4,4
			C12.3,4.2,12.3,4.3,12.3,4.5z M7.5,11.7c-1.1,0.4-2.2,0.9-3.3,1.4c-0.2,0.1-0.5,0.1-0.7,0c-0.9-0.2-1.7-0.5-2.6-0.7
			c-0.2,0-0.4-0.1-0.6-0.1c0,0.1,0,0.2,0,0.2c0,0.1,0,0.2,0,0.3c0.5,2.5,1.9,4.4,4.2,5.6c0.6,0.3,1.1,0.5,1.8,0.6
			c0.2,0,0.3,0.1,0.5,0c0.4-2.5,0.8-4.9,1.2-7.4c0,0,0-0.1,0-0.2C7.8,11.5,7.7,11.6,7.5,11.7z M3.5,10.1c0.2,0,0.3,0,0.5-0.1
			c1.2-0.5,2.4-1,3.6-1.5c0.1,0,0.2,0,0.2-0.2C7.5,8.1,2.7,3.3,2.3,3c0,0-0.1,0-0.1,0C0.6,4.7-0.1,6.7,0,9c0,0.2,0,0.3,0.3,0.3
			C1.4,9.6,2.4,9.9,3.5,10.1z M10.1,7.6c0,0,0.1,0,0.1,0c0-0.1,0-0.3,0-0.4c0-1.1,0-2.2,0-3.3c0-0.3,0.1-0.5,0.3-0.7
			c0.7-0.8,1.4-1.7,2.1-2.5c0.1-0.1,0.1-0.2,0.2-0.3c-1.5-0.5-3.1-0.5-4.6-0.1c-1.3,0.4-2.8,1.2-3.4,2C4.9,2.6,9.6,7.2,10.1,7.6z
			 M25.7,8c-0.1,0-0.1,0-0.2,0c-2.4,0.6-4.9,1.1-7.4,1.7c0.5,0.3,6.9,2.8,7.2,2.9C26.1,11.4,26.1,8.8,25.7,8z"/>
	</g>
</g>
</svg>
