<svg xmlns="http://www.w3.org/2000/svg" width="260.031" height="27" viewBox="0 0 260.031 27">
  <metadata><?xpacket begin="﻿" id="W5M0MpCehiHzreSzNTczkc9d"?>
<x:xmpmeta xmlns:x="adobe:ns:meta/" x:xmptk="Adobe XMP Core 5.6-c138 79.159824, 2016/09/14-01:09:01        ">
   <rdf:RDF xmlns:rdf="http://www.w3.org/1999/02/22-rdf-syntax-ns#">
      <rdf:Description rdf:about=""/>
   </rdf:RDF>
</x:xmpmeta>
                                                                                                    
                                                                                                    
                                                                                                    
                                                                                                    
                                                                                                    
                                                                                                    
                                                                                                    
                                                                                                    
                                                                                                    
                                                                                                    
                                                                                                    
                                                                                                    
                                                                                                    
                                                                                                    
                                                                                                    
                                                                                                    
                                                                                                    
                                                                                                    
                                                                                                    
                                                                                                    
                           
<?xpacket end="w"?></metadata>
<defs>
    <style>
      .cls-1 {
        fill: #d8d8d8;
        fill-rule: evenodd;
      }
    </style>
  </defs>
  <path id="Shape_15_copy" data-name="Shape 15 copy" class="cls-1" d="M1070.92,6533.38a9.54,9.54,0,1,1,9.55,9.59A9.564,9.564,0,0,1,1070.92,6533.38Zm-24.06-2.22c-3.03.79-6.06,1.39-9.04,2.22a0.148,0.148,0,0,0-.05.09c0.57,0.23,1.14.46,1.7,0.7l1.77,0.72,1.71,0.69c0.59,0.24,1.18.48,1.77,0.73,0.56,0.24,1.14.43,1.68,0.72a9.388,9.388,0,0,1-10.47,5.79,9.593,9.593,0,0,1,1.34-19.02A9.437,9.437,0,0,1,1046.86,6531.16Zm-42.09,5.73a9.413,9.413,0,0,1-10.347,5.75,1.221,1.221,0,0,1-.01-0.27q0.62-3.75,1.247-7.5c0.056-.33.1-0.67,0.161-1,0.033-.19.081-0.38,0.123-0.57C996.449,6533.42,1004.28,6536.61,1004.77,6536.89Zm-109.727,8.87c0.169-.65,3.18-8.44,3.429-8.88a1.541,1.541,0,0,1,.2.1q3.835,2.58,7.664,5.16c-0.512,1.23-2.532,2.89-4.4,3.61A9.4,9.4,0,0,1,895.043,6545.76Zm49.3-10.56q3.966,2.655,7.874,5.3c-0.543,1.28-2.619,2.96-4.514,3.66a9.369,9.369,0,0,1-6.774-.04,2.353,2.353,0,0,1,.077-0.36q1.577-4.11,3.16-8.2A3.9,3.9,0,0,1,944.343,6535.2Zm-91.879,2.24c2.642,1.78,5.246,3.53,7.881,5.31a2.767,2.767,0,0,1-.181.32,9.523,9.523,0,0,1-10.61,3.47,2.494,2.494,0,0,1-.443-0.17,0.23,0.23,0,0,1-.078-0.08C849.181,6545.71,852.192,6537.92,852.464,6537.44Zm143.388-4.7c-0.01-.19-0.027-0.34-0.028-0.5,0-1.44,0-2.87,0-4.31a0.971,0.971,0,0,1,.217-0.66c0.92-1.12,1.831-2.25,2.745-3.38a0.608,0.608,0,0,1,.125-0.12,8.2,8.2,0,0,1,3.723,2.25,9.041,9.041,0,0,1,2.47,4.51,2.849,2.849,0,0,1-.31.12c-2.31.55-4.63,1.11-6.946,1.66-0.541.13-1.082,0.25-1.624,0.38C996.109,6532.71,995.993,6532.72,995.852,6532.74Zm-133.233-4.51-9.048,2.15a1.054,1.054,0,0,1-.252,0c-0.01-.18-0.027-0.34-0.027-0.49,0-1.42,0-2.83-.007-4.25a1.11,1.11,0,0,1,.263-0.76c0.873-1.06,1.73-2.13,2.594-3.2,0.074-.09.157-0.17,0.228-0.25a8.209,8.209,0,0,1,3.73,2.26A9.524,9.524,0,0,1,862.619,6528.23Zm81.563,4.3a2.649,2.649,0,0,1-.048-0.34c0-1.5,0-3,0-4.49a0.924,0.924,0,0,1,.2-0.61c0.919-1.12,1.832-2.26,2.747-3.39a1.125,1.125,0,0,1,.124-0.11,8.088,8.088,0,0,1,3.638,2.17,9.45,9.45,0,0,1,2.59,4.58,3.323,3.323,0,0,1-.413.15C949.244,6531.45,944.689,6532.5,944.182,6532.53ZM907.494,6530c-0.143.05-.252,0.1-0.366,0.13-2.934.69-5.869,1.39-8.841,2.09a1.828,1.828,0,0,1-.072-0.36c0-1.52,0-3.03-.006-4.55a0.812,0.812,0,0,1,.185-0.55q1.4-1.71,2.785-3.44c0.037-.04.09-0.07,0.131-0.11A9.335,9.335,0,0,1,907.494,6530Zm-63.035,15.82a7.075,7.075,0,0,1-3.093-1.04,9.414,9.414,0,0,1-3.577-3.6,9.051,9.051,0,0,1-1.174-3.71c0.178,0.03.31,0.03,0.435,0.06,1.154,0.3,2.312.59,3.458,0.91a1.407,1.407,0,0,0,1.029-.08c1.24-.54,2.489-1.05,3.735-1.58,0.218-.09.441-0.17,0.7-0.27a2.869,2.869,0,0,1,0,.43q-0.7,4.26-1.409,8.5A3.906,3.906,0,0,1,844.459,6545.82Zm149.119-3.21a9.4,9.4,0,0,1-7.806-8.34,0.5,0.5,0,0,1,.446.02c1.172,0.3,2.345.6,3.512,0.92a1.159,1.159,0,0,0,.8-0.05c1.314-.57,2.634-1.12,3.952-1.67,0.181-.07.366-0.14,0.553-0.21a0.641,0.641,0,0,1,.034.53c-0.154.96-.315,1.93-0.476,2.89-0.307,1.85-.616,3.69-0.926,5.54C993.648,6542.35,993.612,6542.47,993.578,6542.61Zm-61.972-6.77c0.193,0.04.383,0.07,0.568,0.12,1.115,0.29,2.23.58,3.341,0.88a1.166,1.166,0,0,0,.86-0.06c1.314-.56,2.636-1.11,3.957-1.66a1.114,1.114,0,0,1,.571-0.17,0.558,0.558,0,0,1,.031.17q-0.739,4.485-1.489,8.97a0.92,0.92,0,0,1-.108.19,9.448,9.448,0,0,1-5.521-3.17A8.891,8.891,0,0,1,931.606,6535.84Zm-47.892,1.02c0.274,0.06.5,0.11,0.734,0.17,1.056,0.28,2.115.54,3.166,0.84a1.219,1.219,0,0,0,.861-0.06c1.314-.56,2.635-1.11,3.953-1.66,0.181-.08.365-0.14,0.562-0.22a0.642,0.642,0,0,1,.041.2c-0.493,3.02-.989,6.05-1.484,9.07a0.748,0.748,0,0,1-.605,0,8.9,8.9,0,0,1-2.119-.78,9.543,9.543,0,0,1-5.1-6.9,3.324,3.324,0,0,1-.044-0.42A1.438,1.438,0,0,1,883.714,6536.86Zm51.182-10.51c0.405,0.3,6.3,6.29,6.618,6.73-0.1.05-.2,0.11-0.3,0.15l-4.28,1.8a1.053,1.053,0,0,1-.742.06c-1.224-.34-2.454-0.65-3.681-0.98a2.614,2.614,0,0,1-.317-0.11A9.13,9.13,0,0,1,934.9,6526.35Zm49.784,6.99a9.206,9.206,0,0,1,2.737-7.66,0.938,0.938,0,0,1,.183.14q3.179,3.225,6.354,6.46a0.5,0.5,0,0,1,.051.13,2.1,2.1,0,0,1-.246.15c-1.445.6-2.892,1.2-4.333,1.82a0.974,0.974,0,0,1-.691.06c-1.246-.33-2.493-0.65-3.739-0.98A2.661,2.661,0,0,1,984.68,6533.34Zm-151.872-9.4c0.431,0.36,6.272,6.29,6.569,6.68a0.243,0.243,0,0,1-.211.18c-1.465.62-2.93,1.23-4.4,1.85a0.854,0.854,0,0,1-.572.06c-1.3-.35-2.613-0.69-3.919-1.03a1.172,1.172,0,0,1-.2-0.1A9.091,9.091,0,0,1,832.808,6523.94Zm53.349,1.56c0.486,0.41,6.3,6.32,6.58,6.69a0.29,0.29,0,0,1-.258.2c-1.443.62-2.889,1.22-4.334,1.83a0.855,0.855,0,0,1-.571.07c-1.282-.35-2.569-0.68-3.853-1.02-0.3-.08-0.344-0.12-0.357-0.39a9.452,9.452,0,0,1,2.711-7.33A0.3,0.3,0,0,1,886.157,6525.5Zm2.923-.9a8.634,8.634,0,0,1,4.122-2.46,9.3,9.3,0,0,1,5.547.15,3.537,3.537,0,0,1-.224.36c-0.835,1.04-1.668,2.08-2.516,3.11a1.265,1.265,0,0,0-.306.87c0.014,1.35.007,2.71,0,4.06,0,0.17-.013.35-0.019,0.52a0.693,0.693,0,0,1-.15,0C894.968,6530.7,889.335,6524.93,889.08,6524.6Zm-40.811,4.83c-0.069-.04-0.132-0.05-0.168-0.08q-3.207-3.255-6.4-6.49a8.22,8.22,0,0,1,3.788-2.41,9.435,9.435,0,0,1,5.9.04,3.11,3.11,0,0,1-.215.36c-0.8.99-1.6,1.98-2.4,2.98a1.16,1.16,0,0,0-.429,1.23c0,1.26,0,2.52,0,3.77A1.207,1.207,0,0,1,848.269,6529.43Zm94.476,2.9c-0.155-.12-0.222-0.15-0.272-0.2q-3.186-3.225-6.362-6.46a8.7,8.7,0,0,1,4.142-2.51,9.157,9.157,0,0,1,5.535.2c-0.073.11-.135,0.22-0.215,0.32-0.811,1.01-1.616,2.03-2.445,3.02a1.524,1.524,0,0,0-.392,1.08c0.027,1.27.009,2.55,0.009,3.83v0.72Zm46-6.58a9.094,9.094,0,0,1,4.753-2.64,8.828,8.828,0,0,1,4.933.37c-0.117.16-.226,0.31-0.347,0.46-0.761.95-1.515,1.9-2.293,2.83a1.608,1.608,0,0,0-.412,1.13c0.029,1.28.011,2.55,0.009,3.83,0,0.19-.013.39-0.02,0.58a0.454,0.454,0,0,1-.412-0.24c-1.189-1.2-2.373-2.41-3.559-3.61-0.739-.75-1.479-1.5-2.218-2.26C989.044,6526.06,988.91,6525.92,988.749,6525.75Zm55.191,8.05a1.525,1.525,0,0,1,.25-0.13c2.95-.69,5.9-1.41,8.85-2.1a8.486,8.486,0,0,1-.39,5.77,1.378,1.378,0,0,1-.26-0.06q-4.08-1.665-8.17-3.33C1044.14,6533.92,1044.06,6533.86,1043.94,6533.8Zm-94.677,0a0.9,0.9,0,0,1,.253-0.12q4.431-1.065,8.854-2.11a8.5,8.5,0,0,1-.385,5.77,1.313,1.313,0,0,1-.262-0.06l-8.17-3.33C949.466,6533.91,949.385,6533.86,949.263,6533.8Zm61.457-2.21a9.557,9.557,0,0,1-.42,5.69,0.268,0.268,0,0,1-.11.05,0.064,0.064,0,0,1-.06,0c-2.76-1.12-5.51-2.24-8.27-3.36-0.09-.04-0.18-0.08-0.33-0.16a2.393,2.393,0,0,1,.33-0.16q4.245-1.02,8.51-2.02A1.462,1.462,0,0,1,1010.72,6531.59Zm-151.829,2.22a0.894,0.894,0,0,1,.222-0.12c2.913-.7,5.827-1.39,8.741-2.09a1.764,1.764,0,0,1,.208.01,7.6,7.6,0,0,1,.258,2.59,8.736,8.736,0,0,1-.663,3.1,0.494,0.494,0,0,1-.1.03,0.114,0.114,0,0,1-.058,0l-8.273-3.36C859.135,6533.93,859.049,6533.89,858.891,6533.81Zm46.379-.06c3.058-.74,6.012-1.43,8.961-2.14a0.81,0.81,0,0,1,.22,0,8.648,8.648,0,0,1-.436,5.71C913.584,6537.23,905.914,6534.11,905.27,6533.75Z" transform="translate(-829.969 -6520)"/>
</svg>
