<?xml version="1.0" encoding="utf-8"?>
<!-- Generator: Adobe Illustrator 21.1.0, SVG Export Plug-In . SVG Version: 6.00 Build 0)  -->
<svg version="1.1" id="Layer_1" xmlns="http://www.w3.org/2000/svg" xmlns:xlink="http://www.w3.org/1999/xlink" x="0px" y="0px"
	 viewBox="0 0 28 20" style="enable-background:new 0 0 28 20;" xml:space="preserve">
<style type="text/css">
	.st0{fill:#FFFFFF;}
</style>
<g>
	<g>
		<path class="st0" d="M1.8,0.7v4.4L3.9,0L1.8,0.7z M1.5,5.4V1L0,1.5L1.5,5.4z M13,10.6l4.3,2.1l-2.3-5.9L13,10.6z M25.5,3.5
			l1.4,3.7L28,1L25.5,3.5z M25.6,1.5l-0.3,1.8l2.5-2.5L25.6,1.5z M26.4,10l0.5-2.8l-2-0.4L26.4,10z M25.2,3.2l-0.6,3.3l2,0.4
			L25.2,3.2z M24.6,6.8l-0.8,4.1l2.3-1L24.6,6.8z M18.8,16.2l1.2,3.2l2.3-3.5L18.8,16.2z M20.3,19.4l3.2-1.1l-0.9-2.4L20.3,19.4z
			 M23.8,18.3l0.9-0.3l-1.8-2.1L23.8,18.3z M22.4,15.6l-4.5-2.2l0.9,2.5L22.4,15.6z M22.7,15.6l0.9-4.4l-5.4,2.2L22.7,15.6z
			 M25,17.8l1.4-7.5l-3.1,5.4L25,17.8z M26.1,10.2l-2.3,1l-0.9,4.4L26.1,10.2z M15.6,7.5l2.3,5.9l2.4-3.7L15.6,7.5z M15.4,7l3.3-1.4
			l-4.2-0.8L15.4,7z M20.3,9.5L19,5.9l-3.3,1.4L20.3,9.5z M18.7,5.4l-1.8-5l-2.4,4.1L18.7,5.4z M13.2,1.6l1.1,3l2.4-4.1L13.2,1.6z
			 M14.9,6.8l-2-1l-0.1,4.8L14.9,6.8z M13.2,5.8l2,1l-0.8-2.2L13.2,5.8z M12.9,1.6l0,4.2L14,4.6L12.9,1.6z M12.5,11.3l0.1-4.8
			l-2.6,3.6L12.5,11.3z M4.3,12.4l2.9,7.4l2.7-4.7L4.3,12.4z M10.1,19.1v-3.8L7.4,20L10.1,19.1z M9.8,14.8l0-4.7l-5.5,2L9.8,14.8z
			 M10.1,15.1l2.4-3.5l-2.4-1.2L10.1,15.1z M3.9,0.5L1.8,5.6l5.1,2.5L3.9,0.5z M1.8,5.9L4,11.6l2.9-3.3L1.8,5.9z M9.8,9.9L7.1,8.6
			l-2.9,3.3L9.8,9.9z"/>
	</g>
</g>
</svg>
